<svg width="20" height="20" viewBox="0 0 20 20" fill="none" xmlns="http://www.w3.org/2000/svg">
<path d="M11.2503 7.7085H1.66699C1.32533 7.7085 1.04199 7.42516 1.04199 7.0835C1.04199 6.74183 1.32533 6.4585 1.66699 6.4585H11.2503C11.592 6.4585 11.8753 6.74183 11.8753 7.0835C11.8753 7.42516 11.592 7.7085 11.2503 7.7085Z" fill="white"/>
<path d="M6.66691 14.375H5.00024C4.65858 14.375 4.37524 14.0917 4.37524 13.75C4.37524 13.4083 4.65858 13.125 5.00024 13.125H6.66691C7.00858 13.125 7.29191 13.4083 7.29191 13.75C7.29191 14.0917 7.00858 14.375 6.66691 14.375Z" fill="white"/>
<path d="M12.0836 14.375H8.75025C8.40859 14.375 8.12524 14.0917 8.12524 13.75C8.12524 13.4083 8.40859 13.125 8.75025 13.125H12.0836C12.4253 13.125 12.7086 13.4083 12.7086 13.75C12.7086 14.0917 12.4253 14.375 12.0836 14.375Z" fill="white"/>
<path d="M14.6337 17.7084H5.36699C2.05033 17.7084 1.04199 16.7084 1.04199 13.4251V6.57508C1.04199 3.29175 2.05033 2.29175 5.36699 2.29175H11.2503C11.592 2.29175 11.8753 2.57508 11.8753 2.91675C11.8753 3.25841 11.592 3.54175 11.2503 3.54175H5.36699C2.75033 3.54175 2.29199 3.99175 2.29199 6.57508V13.4167C2.29199 16.0001 2.75033 16.4501 5.36699 16.4501H14.6253C17.242 16.4501 17.7003 16.0001 17.7003 13.4167V10.0167C17.7003 9.67508 17.9837 9.39175 18.3253 9.39175C18.667 9.39175 18.9503 9.67508 18.9503 10.0167V13.4167C18.9587 16.7084 17.9503 17.7084 14.6337 17.7084Z" fill="white"/>
<path d="M18.3336 5.8335H13.7502C13.4086 5.8335 13.1252 5.55016 13.1252 5.2085C13.1252 4.86683 13.4086 4.5835 13.7502 4.5835H18.3336C18.6752 4.5835 18.9586 4.86683 18.9586 5.2085C18.9586 5.55016 18.6752 5.8335 18.3336 5.8335Z" fill="white"/>
<path d="M16.042 8.12508C15.7003 8.12508 15.417 7.84175 15.417 7.50008V2.91675C15.417 2.57508 15.7003 2.29175 16.042 2.29175C16.3837 2.29175 16.667 2.57508 16.667 2.91675V7.50008C16.667 7.84175 16.3837 8.12508 16.042 8.12508Z" fill="white"/>
</svg>
