<svg width="20" height="20" viewBox="0 0 20 20" fill="none" xmlns="http://www.w3.org/2000/svg">
<path fill-rule="evenodd" clip-rule="evenodd" d="M2.5 2.70898C2.84518 2.70898 3.125 2.9888 3.125 3.33398V16.6673C3.125 17.0125 2.84518 17.2923 2.5 17.2923C2.15482 17.2923 1.875 17.0125 1.875 16.6673V3.33398C1.875 2.9888 2.15482 2.70898 2.5 2.70898Z" fill="white"/>
<path fill-rule="evenodd" clip-rule="evenodd" d="M5.2002 12.7916C5.2002 11.5964 6.1717 10.625 7.36685 10.625H15.9585C17.1537 10.625 18.1252 11.5964 18.1252 12.7916V14.7167C18.1252 15.9118 17.1537 16.8834 15.9585 16.8834H7.36685C6.17165 16.8834 5.2002 15.9118 5.2002 14.7167V12.7916ZM7.36685 11.875C6.86205 11.875 6.4502 12.2868 6.4502 12.7916V14.7167C6.4502 15.2215 6.86205 15.6334 7.36685 15.6334H15.9585C16.4633 15.6334 16.8752 15.2215 16.8752 14.7167V12.7916C16.8752 12.2868 16.4633 11.875 15.9585 11.875H7.36685Z" fill="white"/>
<path fill-rule="evenodd" clip-rule="evenodd" d="M5.20801 5.29165C5.20801 4.09645 6.17951 3.125 7.37466 3.125H12.6247C13.8198 3.125 14.7913 4.09645 14.7913 5.29165V7.21665C14.7913 8.4118 13.8199 9.38336 12.6247 9.38336H7.37466C6.17946 9.38336 5.20801 8.4118 5.20801 7.21665V5.29165ZM7.37466 4.375C6.86981 4.375 6.45801 4.78683 6.45801 5.29165V7.21665C6.45801 7.7215 6.86986 8.13336 7.37466 8.13336H12.6247C13.1295 8.13336 13.5413 7.7215 13.5413 7.21665V5.29165C13.5413 4.78683 13.1295 4.375 12.6247 4.375H7.37466Z" fill="white"/>
</svg>
