<svg width="20" height="20" viewBox="0 0 20 20" fill="none" xmlns="http://www.w3.org/2000/svg">
<path d="M5.1506 18.9579C5.06727 18.9579 4.9756 18.9496 4.9006 18.9413L3.09227 18.6913C2.2256 18.5746 1.44227 17.7996 1.30894 16.9163L1.05894 15.0913C0.975602 14.5079 1.2256 13.7496 1.64227 13.3246L5.3006 9.66626C4.70894 7.29961 5.39227 4.79961 7.13394 3.07461C9.8339 0.382944 14.2256 0.374611 16.9339 3.07461C18.2422 4.38294 18.9589 6.12461 18.9589 7.97461C18.9589 9.82459 18.2422 11.5663 16.9339 12.8746C15.1839 14.6079 12.6922 15.2913 10.3422 14.6913L6.6756 18.3496C6.3256 18.7163 5.7006 18.9579 5.1506 18.9579ZM12.0256 2.29961C10.5672 2.29961 9.11724 2.84961 8.00894 3.95794C6.50894 5.44961 5.96727 7.63294 6.59227 9.66626C6.65894 9.89126 6.6006 10.1246 6.43394 10.2913L2.51727 14.2079C2.3756 14.3496 2.25894 14.7163 2.28394 14.9079L2.53394 16.7329C2.58394 17.0496 2.9256 17.4079 3.24227 17.4496L5.05894 17.6996C5.25894 17.7329 5.6256 17.6163 5.76727 17.4746L9.70057 13.5496C9.86724 13.3829 10.1089 13.3329 10.3256 13.3996C12.3339 14.0329 14.5256 13.4913 16.0256 11.9913C17.0922 10.9246 17.6839 9.49126 17.6839 7.97461C17.6839 6.44961 17.0922 5.02461 16.0256 3.95794C14.9422 2.85794 13.4839 2.29961 12.0256 2.29961Z" fill="white"/>
<path d="M7.65872 17.1158C7.50039 17.1158 7.34206 17.0574 7.21706 16.9324L5.30039 15.0158C5.05872 14.7741 5.05872 14.3741 5.30039 14.1324C5.54206 13.8908 5.94206 13.8908 6.18372 14.1324L8.10039 16.0491C8.34202 16.2908 8.34202 16.6908 8.10039 16.9324C7.97539 17.0574 7.81706 17.1158 7.65872 17.1158Z" fill="white"/>
<path d="M12.084 9.791C11.0507 9.791 10.209 8.94933 10.209 7.91602C10.209 6.88268 11.0507 6.04102 12.084 6.04102C13.1173 6.04102 13.959 6.88268 13.959 7.91602C13.959 8.94933 13.1173 9.791 12.084 9.791ZM12.084 7.29102C11.7423 7.29102 11.459 7.57435 11.459 7.91602C11.459 8.25768 11.7423 8.541 12.084 8.541C12.4257 8.541 12.709 8.25768 12.709 7.91602C12.709 7.57435 12.4257 7.29102 12.084 7.29102Z" fill="white"/>
</svg>
