<svg width="20" height="20" viewBox="0 0 20 20" fill="none" xmlns="http://www.w3.org/2000/svg">
<path fill-rule="evenodd" clip-rule="evenodd" d="M6.77344 12.5629C6.77344 12.2089 7.06229 11.9219 7.4186 11.9219H10.8595C11.2157 11.9219 11.5047 12.2089 11.5047 12.5629C11.5047 12.917 11.2157 13.204 10.8595 13.204H7.4186C7.06229 13.204 6.77344 12.917 6.77344 12.5629Z" fill="white"/>
<path fill-rule="evenodd" clip-rule="evenodd" d="M9.13931 14.9137C8.78306 14.9137 8.49414 14.6267 8.49414 14.2727V10.8539C8.49414 10.4999 8.78306 10.2129 9.13931 10.2129C9.49564 10.2129 9.78447 10.4999 9.78447 10.8539V14.2727C9.78447 14.6267 9.49564 14.9137 9.13931 14.9137Z" fill="white"/>
<path fill-rule="evenodd" clip-rule="evenodd" d="M9.99967 2.94807C8.72892 2.94807 7.02262 3.08753 5.82919 3.20327C5.33398 3.25129 4.94752 3.6436 4.90918 4.14096C4.79051 5.68063 4.62333 8.1767 4.62333 9.99935C4.62333 11.822 4.79051 14.3181 4.90918 15.8578C4.94752 16.3551 5.33398 16.7474 5.82919 16.7954C7.02262 16.9112 8.72892 17.0506 9.99967 17.0506C11.2704 17.0506 12.9768 16.9112 14.1702 16.7954C14.6653 16.7474 15.0518 16.3551 15.0902 15.8578C15.2088 14.3181 15.376 11.822 15.376 9.99935C15.376 9.4116 15.3586 8.75235 15.3309 8.07627H12.581L12.5803 7.43525V6.79422H15.2672C15.1082 4.76284 13.523 3.14477 11.5051 2.99597V5.72585C11.5051 6.31589 11.9865 6.79422 12.5803 6.79422V7.43525L12.581 8.07627C11.2745 8.07627 10.2148 7.02395 10.2148 5.72585V2.94932C10.1418 2.9485 10.07 2.94807 9.99967 2.94807ZM10.8804 1.68326C10.5756 1.67232 10.2789 1.66602 9.99967 1.66602C8.66092 1.66602 6.90043 1.81124 5.70386 1.92727C4.58058 2.03621 3.70847 2.92939 3.62262 4.04306C3.50391 5.58327 3.33301 8.12279 3.33301 9.99935C3.33301 11.8759 3.50391 14.4154 3.62262 15.9556C3.70847 17.0693 4.58058 17.9625 5.70386 18.0714C6.90043 18.1874 8.66092 18.3327 9.99967 18.3327C11.3384 18.3327 13.0989 18.1874 14.2955 18.0714C15.4188 17.9625 16.2909 17.0693 16.3768 15.9556C16.4954 14.4154 16.6663 11.8759 16.6663 9.99935C16.6663 9.20927 16.6361 8.30402 16.5925 7.40785C16.5923 7.40509 16.5922 7.40234 16.5921 7.3996C16.5827 7.2068 16.5727 7.01445 16.5622 6.82377C16.412 4.09101 14.2645 1.85554 11.4853 1.71017C11.2844 1.69966 11.0844 1.69063 10.8879 1.68353" fill="white"/>
</svg>
