<svg width="20" height="20" viewBox="0 0 20 20" fill="none" xmlns="http://www.w3.org/2000/svg">
<path fill-rule="evenodd" clip-rule="evenodd" d="M7.14405 2.09326C5.76238 2.09326 4.61655 3.21159 4.58405 4.59076V13.6166C4.55988 14.9891 5.64905 16.1158 7.01155 16.1391L7.13405 16.1383H13.8107C15.179 16.1233 16.2949 14.9924 16.2932 13.6174V6.11826L12.4315 2.09326H7.14405ZM6.99988 17.3891C4.93905 17.3533 3.29905 15.6558 3.33405 13.6058V4.57576C3.38155 2.50826 5.08905 0.843262 7.14155 0.843262H12.6974C12.8674 0.843262 13.0299 0.912428 13.1482 1.03493L17.3699 5.4341C17.4807 5.54993 17.5432 5.70576 17.5432 5.8666V13.6166C17.5465 15.6741 15.8749 17.3666 13.8174 17.3883L6.99988 17.3891Z" fill="white"/>
<path fill-rule="evenodd" clip-rule="evenodd" d="M16.9146 6.65374H14.6196C13.0938 6.64957 11.8538 5.40624 11.8538 3.88291V1.45874C11.8538 1.11374 12.1338 0.83374 12.4788 0.83374C12.8238 0.83374 13.1038 1.11374 13.1038 1.45874V3.88291C13.1038 4.71957 13.7846 5.40124 14.6213 5.40374H16.9146C17.2596 5.40374 17.5396 5.68374 17.5396 6.02874C17.5396 6.37374 17.2596 6.65374 16.9146 6.65374Z" fill="white"/>
<path fill-rule="evenodd" clip-rule="evenodd" d="M12.3279 10.5535H8.24536C7.90036 10.5535 7.62036 10.2735 7.62036 9.92847C7.62036 9.58347 7.90036 9.30347 8.24536 9.30347H12.3279C12.6729 9.30347 12.9529 9.58347 12.9529 9.92847C12.9529 10.2735 12.6729 10.5535 12.3279 10.5535Z" fill="white"/>
<path fill-rule="evenodd" clip-rule="evenodd" d="M10.2869 12.5953C9.94187 12.5953 9.66187 12.3153 9.66187 11.9703V7.88696C9.66187 7.54196 9.94187 7.26196 10.2869 7.26196C10.6319 7.26196 10.9119 7.54196 10.9119 7.88696V11.9703C10.9119 12.3153 10.6319 12.5953 10.2869 12.5953Z" fill="white"/>
</svg>
