<svg width="20" height="20" viewBox="0 0 20 20" fill="none" xmlns="http://www.w3.org/2000/svg">
<path d="M14.7276 7.89453C14.8796 7.58462 14.7516 7.21017 14.4417 7.05816C14.1318 6.90614 13.7574 7.03413 13.6053 7.34403L12.3884 9.8249C12.0112 10.5939 10.9026 10.5563 10.5783 9.76356C9.84565 7.97271 7.34111 7.88787 6.48896 9.62506L5.27202 12.1059C5.12001 12.4158 5.248 12.7903 5.5579 12.9423C5.8678 13.0943 6.24226 12.9663 6.39427 12.6564L7.61122 10.1756C7.98841 9.40656 9.09706 9.44415 9.42131 10.2369C10.154 12.0277 12.6585 12.1126 13.5106 10.3754L14.7276 7.89453Z" fill="#fff"/>
<path fill-rule="evenodd" clip-rule="evenodd" d="M13.7196 1.97811C12.7678 1.87499 11.5682 1.87499 10.0377 1.875H9.96233C8.43183 1.87499 7.23217 1.87499 6.2804 1.97811C5.30912 2.08334 4.52213 2.30193 3.8502 2.79013C3.44341 3.08568 3.08568 3.44341 2.79013 3.8502C2.30193 4.52213 2.08334 5.30912 1.97811 6.2804C1.87499 7.23217 1.87499 8.43183 1.875 9.96233V10.0377C1.87499 11.5682 1.87499 12.7678 1.97811 13.7196C2.08334 14.6909 2.30193 15.4778 2.79013 16.1498C3.08568 16.5566 3.44341 16.9143 3.8502 17.2098C4.52213 17.6981 5.30912 17.9167 6.2804 18.0219C7.23216 18.125 8.43183 18.125 9.96225 18.125H10.0377C11.5682 18.125 12.7678 18.125 13.7196 18.0219C14.6909 17.9167 15.4778 17.6981 16.1498 17.2098C16.5566 16.9143 16.9143 16.5566 17.2098 16.1498C17.6981 15.4778 17.9167 14.6909 18.0219 13.7196C18.125 12.7678 18.125 11.5682 18.125 10.0377V9.96225C18.125 8.43183 18.125 7.23216 18.0219 6.2804C17.9167 5.30912 17.6981 4.52213 17.2098 3.8502C16.9143 3.44341 16.5566 3.08568 16.1498 2.79013C15.4778 2.30193 14.6909 2.08334 13.7196 1.97811ZM4.58493 3.8014C5.00827 3.49383 5.55011 3.31454 6.41503 3.22083C7.29166 3.12586 8.42367 3.125 10 3.125C11.5763 3.125 12.7083 3.12586 13.585 3.22083C14.4499 3.31454 14.9917 3.49383 15.4151 3.8014C15.7157 4.01985 15.9802 4.28426 16.1986 4.58493C16.5062 5.00827 16.6854 5.55011 16.7792 6.41503C16.8742 7.29166 16.875 8.42367 16.875 10C16.875 11.5763 16.8742 12.7083 16.7792 13.585C16.6854 14.4499 16.5062 14.9917 16.1986 15.4151C15.9802 15.7157 15.7157 15.9802 15.4151 16.1986C14.9917 16.5062 14.4499 16.6854 13.585 16.7792C12.7083 16.8742 11.5763 16.875 10 16.875C8.42367 16.875 7.29166 16.8742 6.41503 16.7792C5.55011 16.6854 5.00827 16.5062 4.58493 16.1986C4.28426 15.9802 4.01985 15.7157 3.8014 15.4151C3.49383 14.9917 3.31454 14.4499 3.22083 13.585C3.12586 12.7083 3.125 11.5763 3.125 10C3.125 8.42367 3.12586 7.29166 3.22083 6.41503C3.31454 5.55011 3.49383 5.00827 3.8014 4.58493C4.01985 4.28426 4.28426 4.01985 4.58493 3.8014Z" fill="#fff"/>
</svg>
