<svg version="1.1" id="Layer_1" xmlns="http://www.w3.org/2000/svg" xmlns:xlink="http://www.w3.org/1999/xlink" x="0px" y="0px"
	 viewBox="0 0 40 40" style="enable-background:new 0 0 40 40;" xml:space="preserve">
<style type="text/css">
	.st0{fill:#FFFFFF;}
	.st1{opacity:0.48;fill:#42BDA1;}
	.st2{fill:#1B7870;}
	.st3{opacity:0.3;fill:#C6E7E2;}
	.st4{opacity:0.3;fill:#FFFFFF;}
</style>
<circle class="st0" cx="20" cy="20" r="18.42"/>
<path id="Cobweb_1_" class="st1" d="M35.66,19.76h-1.43c-3.13-3.74-2.85-8.03-2.79-8.65l1.17-0.94c0.08-0.07,0.1-0.19,0.03-0.28
	c-0.07-0.08-0.19-0.1-0.27-0.03l-1.16,0.94l-0.59-0.12c-2.36-0.48-4.54-1.99-5.84-4.05l0.61-1.89c0-0.01,0-0.01,0-0.02
	c0-0.01,0-0.01,0-0.02c0-0.01,0-0.01,0-0.02c0-0.01,0-0.01,0-0.02c0-0.01,0-0.01,0-0.02c0-0.01,0-0.01,0-0.02
	c0-0.01,0-0.01-0.01-0.02c0-0.01,0-0.01-0.01-0.02c0-0.01-0.01-0.01-0.01-0.02c0-0.01-0.01-0.01-0.01-0.02c0,0-0.01-0.01-0.01-0.01
	c0,0-0.01-0.01-0.01-0.01c0,0-0.01-0.01-0.01-0.01c-0.01,0-0.01-0.01-0.02-0.01c0,0-0.01,0-0.02-0.01c-0.01,0-0.01-0.01-0.02-0.01
	c0,0,0,0,0,0c0,0,0,0,0,0c-0.01,0-0.01,0-0.02,0c-0.01,0-0.01,0-0.02,0c-0.01,0-0.02,0-0.03,0c0,0-0.01,0-0.01,0
	c-0.01,0-0.02,0-0.03,0.01c0,0,0,0,0,0c-0.01,0-0.02,0.01-0.03,0.01c0,0,0,0,0,0c-0.01,0-0.02,0.01-0.03,0.02c0,0,0,0,0,0
	c-0.01,0.01-0.01,0.01-0.02,0.02c0,0-0.01,0-0.01,0.01c-0.01,0.01-0.01,0.01-0.01,0.02c0,0-0.01,0.01-0.01,0.01
	c0,0.01-0.01,0.01-0.01,0.02c0,0.01-0.01,0.01-0.01,0.02l-0.58,1.75l-0.06,0.2c-2.66,0.93-5.48,0.9-8.16-0.09L15.45,6.2
	c0,0,0,0-0.01,0c0,0,0,0-0.01,0c-0.01,0-0.01,0-0.02,0c0,0-0.01,0-0.01,0c-0.01,0-0.01,0-0.02,0l-0.47-1.31
	c-0.04-0.1-0.15-0.16-0.25-0.12C14.57,4.79,14.52,4.9,14.56,5l0.53,1.49c-1.39,2.21-3.47,3.8-5.6,4.26L8.9,10.89L7.73,9.96
	C7.64,9.9,7.52,9.91,7.45,10c-0.07,0.09-0.05,0.21,0.03,0.28l1.19,0.94c0.12,0.62,0.93,5.42-2.07,8.55H4.34
	c-0.11,0-0.19,0.09-0.19,0.2c0,0.11,0.09,0.2,0.19,0.2l2.2,0c0.01,0.01,0.02,0.02,0.02,0.03c3.07,3.13,2.25,7.98,2.13,8.61
	l-1.19,0.94c-0.08,0.07-0.1,0.19-0.03,0.28c0.07,0.09,0.19,0.1,0.27,0.03l1.17-0.93l0.59,0.13c2.35,0.51,4.41,1.99,5.67,4.05
	L14.58,35c-0.04,0.1,0.02,0.21,0.12,0.25c0.02,0.01,0.04,0.01,0.07,0.01c0.08,0,0.15-0.05,0.18-0.13l0.47-1.31
	c0.02,0,0.04,0,0.06-0.01l0.77-0.28c2.68-0.99,5.5-1.02,8.16-0.09l0.64,1.95c0,0,0,0.01,0.01,0.01c0,0,0,0.01,0.01,0.01
	s0.01,0.01,0.01,0.01c0,0,0.01,0.01,0.01,0.01c0,0,0.01,0.01,0.01,0.01c0,0,0.01,0.01,0.01,0.01c0,0,0.01,0.01,0.01,0.01
	c0,0,0.01,0.01,0.01,0.01c0,0,0.01,0.01,0.01,0.01c0,0,0.01,0.01,0.01,0.01c0,0,0.01,0,0.01,0.01c0,0,0.01,0,0.01,0.01
	c0,0,0.01,0,0.01,0c0.01,0,0.01,0,0.02,0c0.01,0,0.01,0,0.02,0c0,0,0.01,0,0.01,0c0,0,0,0,0,0c0,0,0,0,0,0c0,0,0,0,0,0
	c0.01,0,0.02,0,0.03,0c0,0,0.01,0,0.01,0c0.01,0,0.01,0,0.02,0c0,0,0,0,0,0c0,0,0,0,0,0c0.01,0,0.01-0.01,0.02-0.01
	c0.01,0,0.01-0.01,0.02-0.01c0.01,0,0.01-0.01,0.02-0.01c0.01,0,0.01-0.01,0.02-0.01c0,0,0.01-0.01,0.01-0.01
	c0,0,0.01-0.01,0.01-0.01c0-0.01,0.01-0.01,0.01-0.02c0,0,0.01-0.01,0.01-0.01c0-0.01,0-0.01,0.01-0.02c0-0.01,0-0.01,0.01-0.02
	c0-0.01,0-0.01,0-0.02c0-0.01,0-0.01,0-0.02c0-0.01,0-0.01,0-0.02c0-0.01,0-0.01,0-0.02c0-0.01,0-0.01,0-0.02c0-0.01,0-0.01,0-0.02
	l-0.61-1.89c1.3-2.06,3.48-3.57,5.84-4.05l0.59-0.12l1.16,0.94c0.08,0.07,0.21,0.05,0.27-0.03c0.07-0.08,0.05-0.21-0.03-0.28
	l-1.17-0.94c-0.06-0.62-0.34-4.94,2.81-8.68c0.02-0.01,0.04-0.02,0.05-0.03c0.01-0.01,0.01-0.02,0.02-0.02h1.31
	c0.11,0,0.19-0.09,0.19-0.2S35.77,19.76,35.66,19.76z M31.2,13.99c0.25,1.51,0.89,3.7,2.54,5.77h-4.25
	c-1.95-2.57-1.56-5.4-1.48-5.86l3.03-2.45C31.01,11.96,31.01,12.86,31.2,13.99z M21.4,22.78l-0.85-2.29l1.95,1.64
	C22.08,22.25,21.7,22.47,21.4,22.78z M17.76,22.14l1.98-1.63l-0.84,2.34C18.59,22.52,18.2,22.27,17.76,22.14z M22.48,17.87
	l-1.9,1.54l0.81-2.19C21.68,17.53,22.06,17.75,22.48,17.87z M22.7,18.19c-0.01,0.42,0.05,1.05,0.39,1.57h-2.32L22.7,18.19z
	 M20.11,19.41l-0.95-2.63c0.37,0.12,0.75,0.19,1.13,0.19c0.23,0,0.46-0.02,0.69-0.09L20.11,19.41z M18.88,17.14l0.8,2.27l-1.94-1.56
	C18.18,17.73,18.58,17.48,18.88,17.14z M19.52,19.76h-2.16c0.2-0.3,0.4-0.8,0.27-1.49L19.52,19.76z M19.56,20.15l-1.9,1.58
	c0.13-0.77-0.12-1.29-0.34-1.58H19.56z M20.15,20.52L21,23.1c-0.58-0.12-1.22-0.08-1.81,0.12L20.15,20.52z M20.67,20.15h2.49
	c-0.39,0.53-0.46,1.21-0.45,1.66L20.67,20.15z M23.58,19.76c-0.59-0.6-0.5-1.64-0.47-1.9l1.65-1.34c0.03,0.74,0.18,2.25,0.96,3.24
	L23.58,19.76z M22.87,17.55l-0.08-0.01c-0.5-0.09-0.96-0.36-1.27-0.75l0.64-2c0.59,0.73,1.43,1.23,2.36,1.42L22.87,17.55z
	 M21.12,16.46c-0.59,0.18-1.28,0.16-1.91-0.07l-0.19-0.07c-0.01,0-0.02-0.01-0.03-0.01l-0.6-1.68l0.03,0.01
	c0.48,0.16,1,0.23,1.53,0.23c0.6,0,1.21-0.1,1.8-0.3L21.12,16.46z M18.73,16.71c-0.31,0.43-0.78,0.72-1.3,0.82l-0.08,0.01
	l-1.68-1.32c0.93-0.2,1.77-0.73,2.36-1.47L18.73,16.71z M17.12,17.86c0.43,1.14-0.1,1.74-0.26,1.89h-2.21
	c0.41-0.6,1.07-1.81,0.9-3.13L17.12,17.86z M16.79,20.15c0.01,0.02,0.03,0.04,0.05,0.05c0.03,0.02,0.8,0.62,0.3,1.93l-1.57,1.24
	c0.18-1.39-0.56-2.65-0.96-3.22H16.79z M17.37,22.45l0.08,0.01c0.52,0.1,0.99,0.39,1.3,0.82l-0.7,1.96
	c-0.59-0.74-1.43-1.27-2.36-1.47L17.37,22.45z M19.02,23.69c0.01,0,0.02,0,0.03-0.01l0.19-0.07c0.62-0.23,1.31-0.25,1.91-0.07
	l0.62,1.89c-1.1-0.37-2.29-0.4-3.32-0.07l-0.03,0.01L19.02,23.69z M21.54,23.21c0.32-0.39,0.77-0.66,1.27-0.75l0.08-0.01l1.66,1.34
	c-0.93,0.19-1.77,0.69-2.36,1.42L21.54,23.21z M23.13,22.14c-0.03-0.27-0.13-1.36,0.52-1.95c0.01-0.01,0.02-0.03,0.03-0.04l2.13,0
	c-0.85,0.98-1.01,2.56-1.04,3.33L23.13,22.14z M26.26,19.76c-1.05-0.99-1.11-3.05-1.11-3.55l2.41-1.95c-0.11,1-0.13,3.29,1.44,5.5
	H26.26z M24.93,15.89l-0.23-0.04c-0.96-0.17-1.83-0.72-2.39-1.51l0.99-3.08c0.95,1.35,2.4,2.3,4.02,2.63l0.06,0.01L24.93,15.89z
	 M21.9,14.09c-1.1,0.44-2.32,0.5-3.36,0.17l-0.31-0.1l-1.05-2.94l0.19,0.07c0.84,0.29,1.74,0.43,2.65,0.43
	c0.95,0,1.9-0.16,2.81-0.46L21.9,14.09z M17.87,14.31c-0.55,0.81-1.41,1.37-2.38,1.55l-0.23,0.04l-2.49-1.96l0.06-0.01
	c1.61-0.34,3.03-1.29,3.96-2.63L17.87,14.31z M15.08,16.25c0.44,1.53-0.57,3.05-0.91,3.5h-2.65c0.48-0.82,1.64-3.12,1.15-5.4
	L15.08,16.25z M14.06,20.15c0.01,0.01,0.01,0.02,0.02,0.02c0.03,0.02,0.06,0.04,0.1,0.05c0.33,0.43,1.37,1.97,0.92,3.52l-2.4,1.89
	c0.51-2.36-0.77-4.76-1.21-5.48H14.06z M15.28,24.1l0.23,0.04c0.97,0.18,1.83,0.74,2.38,1.55l-1.07,3.01
	c-0.93-1.34-2.35-2.29-3.96-2.63l-0.06-0.01L15.28,24.1z M18.25,25.84l0.31-0.1c1.05-0.34,2.26-0.27,3.36,0.17l0.94,2.84
	c-1.77-0.6-3.74-0.62-5.46-0.04l-0.19,0.07L18.25,25.84z M22.33,25.66c0.56-0.79,1.42-1.34,2.39-1.51l0.23-0.04l2.45,1.99
	l-0.06,0.01c-1.63,0.33-3.08,1.28-4.02,2.63L22.33,25.66z M25.17,23.79c0-0.51,0.06-2.63,1.16-3.6c0.01-0.01,0.02-0.03,0.03-0.04
	h2.72c-1.63,2.24-1.61,4.58-1.5,5.59L25.17,23.79z M30.55,11.06l0.27,0.06l-3.04,2.46L27.4,13.5c-1.63-0.33-3.07-1.32-3.95-2.72
	l1.18-3.68C26.01,9.11,28.19,10.58,30.55,11.06z M20.44,7.64c1.28,0,2.55-0.2,3.79-0.6L23,10.78c-1.77,0.68-3.76,0.73-5.49,0.14
	l-0.49-0.17L15.57,6.7l0-0.04l0.52,0.19C17.51,7.37,18.98,7.64,20.44,7.64z M9.57,11.14c2.15-0.47,4.24-2.02,5.68-4.19l1.38,3.89
	c-0.87,1.38-2.28,2.36-3.88,2.71l-0.38,0.08L9.3,11.2L9.57,11.14z M9.23,14.25c0.08-1.15-0.02-2.12-0.1-2.68l3.03,2.39
	c0.84,2.48-0.78,5.28-1.1,5.8H7.13C8.67,17.99,9.13,15.81,9.23,14.25z M9.25,25.75c-0.11-1.59-0.57-3.81-2.18-5.6h3.96c0,0,0,0,0,0
	c0.02,0.03,2.08,3.15,1.15,5.88l-3.03,2.39C9.23,27.87,9.33,26.91,9.25,25.75z M9.59,28.86L9.32,28.8l3.08-2.43l0.38,0.08
	c1.6,0.34,3.01,1.33,3.88,2.71l-1.31,3.67C14.02,30.81,11.94,29.37,9.59,28.86z M16.11,33.15l-0.53,0.2l1.46-4.1l0.49-0.17
	c1.73-0.59,3.73-0.54,5.49,0.14l1.23,3.74C21.59,32.11,18.78,32.17,16.11,33.15z M30.57,28.94c-2.36,0.48-4.54,1.95-5.91,3.96
	l-1.18-3.68c0.88-1.4,2.32-2.39,3.95-2.72l0.38-0.08l3.04,2.46L30.57,28.94z M31.22,26.01c-0.19,1.13-0.19,2.03-0.16,2.54
	l-3.03-2.45c-0.08-0.47-0.49-3.35,1.53-5.93c0,0,0.01-0.01,0.01-0.01h4.26C32.13,22.25,31.47,24.48,31.22,26.01z"/>
<g>
	<g>
		<path class="st2" d="M20,0.91C9.47,0.91,0.91,9.47,0.91,20S9.47,39.09,20,39.09S39.09,30.53,39.09,20S30.53,0.91,20,0.91z
			 M18.93,37.47C9.18,36.85,1.78,28.44,2.4,18.69S11.44,1.54,21.19,2.16s17.15,9.03,16.53,18.78S28.68,38.09,18.93,37.47z"/>
	</g>
	<g>
		<path class="st2" d="M21.19,2.16C11.44,1.54,3.03,8.94,2.4,18.69s6.78,18.16,16.53,18.78s18.16-6.78,18.78-16.53
			S30.94,2.78,21.19,2.16z M20,35.92c-8.78,0-15.92-7.14-15.92-15.92S11.22,4.08,20,4.08S35.92,11.22,35.92,20S28.78,35.92,20,35.92
			z"/>
	</g>
	<g>
		<path class="st3" d="M21.19,2.16C11.44,1.54,3.03,8.94,2.4,18.69s6.78,18.16,16.53,18.78s18.16-6.78,18.78-16.53
			S30.94,2.78,21.19,2.16z M20,35.92c-8.78,0-15.92-7.14-15.92-15.92S11.22,4.08,20,4.08S35.92,11.22,35.92,20S28.78,35.92,20,35.92
			z"/>
		<circle class="st4" cx="20" cy="20" r="15.92"/>
	</g>
</g>
<path id="Spider" class="st2" d="M29.15,22.13c-0.05-0.32-0.27-0.6-0.57-0.72c-0.67-0.28-2.27-0.82-6.04-1.78
	c0,0-0.35-0.21,0.99-0.08c0,0,4.07,0.45,4.15-0.36c0.02-0.2,1.28-4.72-1.74-10.09c0,0-0.14,0.04-0.1,0.25
	c0.04,0.21,1.24,7.4,0.25,8.74c0,0-0.41,0.74-2.21,0.31c0,0,1.44-0.74,0.53-5.21c-0.26-1.29-0.68-2.54-1.27-3.71
	c-0.3-0.6-0.62-1.14-0.85-1.24c0,0,1.22,7.03,0.38,9.39c-0.07,0.2-0.24,0.36-0.46,0.4c-0.26,0.05-0.64-0.05-1.04-0.68
	c0,0,0.89-1.16,0.87-2.52c-0.01-0.95-0.5-2.71-2.04-2.77c-1.54,0.06-2.02,1.82-2.04,2.77c-0.02,1.36,0.87,2.52,0.87,2.52
	c-0.4,0.63-0.77,0.73-1.04,0.68c-0.21-0.04-0.39-0.2-0.46-0.4c-0.84-2.36,0.38-9.39,0.38-9.39c-0.23,0.1-0.55,0.65-0.85,1.24
	c-0.59,1.18-1,2.43-1.27,3.71c-0.91,4.46,0.53,5.21,0.53,5.21c-1.8,0.43-2.21-0.31-2.21-0.31c-0.99-1.34,0.21-8.53,0.25-8.74
	c0.04-0.21-0.1-0.25-0.1-0.25c-3.02,5.37-1.76,9.89-1.74,10.09c0.08,0.82,4.15,0.36,4.15,0.36c1.34-0.12,0.99,0.08,0.99,0.08
	c-3.78,0.96-5.37,1.5-6.04,1.78c-0.3,0.13-0.52,0.4-0.57,0.72c-0.06,0.37,0.01,1.35,0.05,1.51c1.76,6.59,4.02,8.13,4.02,8.13
	s-0.21-1.07-1.07-3.37c-0.97-2.58-1.22-5.25-1.22-5.25c0.12-0.87,2.19-1.32,2.19-1.32c-0.76,0.93,0,3.66,0,3.66
	c0.6,2.38,2.82,5.92,2.77,5.54c0,0-1.2-4.92-1.45-7.15c-0.25-2.23,0.83-2.42,0.83-2.42c-0.64,7.6,3.03,7.6,3.03,7.6s3.67,0,3.03-7.6
	c0,0,1.07,0.19,0.83,2.42c-0.25,2.23-1.45,7.15-1.45,7.15c-0.05,0.38,2.17-3.16,2.77-5.54c0,0,0.76-2.73,0-3.66
	c0,0,2.07,0.45,2.19,1.32c0,0-0.25,2.67-1.22,5.25c-0.86,2.3-1.07,3.37-1.07,3.37s2.26-1.54,4.02-8.13
	C29.14,23.48,29.21,22.5,29.15,22.13z"/>
</svg>
